<svg width="124" height="124" viewBox="0 0 124 124" fill="none" xmlns="http://www.w3.org/2000/svg">
<g clip-path="url(#clip0_825_2)">
<path d="M18.218 70.4766C18.1525 70.4763 18.0869 70.4792 18.0216 70.4855C17.4314 70.541 17.266 70.7417 17.266 71.3604C17.266 82.3757 17.2686 93.3943 17.2738 104.416C17.2738 105.768 16.2885 107.017 14.7085 107C10.6442 106.956 6.57879 106.968 2.51448 106.993C0.913388 107.003 0.00798919 106.062 0.00687963 104.499C0.00244141 93.3134 0.00577008 82.1277 0.0168656 70.9424C0.0168656 69.3655 0.698134 68.6081 2.36025 68.5937C5.70113 68.5649 9.042 68.5937 12.3829 68.5793C13.0819 68.5911 13.7637 68.3621 14.3135 67.9306C14.9726 67.4116 15.1357 66.6808 15.1435 65.9345C15.1723 63.2443 15.1723 60.5544 15.1435 57.8649C15.1471 57.5284 15.083 57.1947 14.9548 56.8836C14.8267 56.5724 14.6371 56.2903 14.3975 56.0539C14.1579 55.8175 13.8732 55.6318 13.5602 55.5078C13.2472 55.3838 12.9125 55.324 12.5759 55.3321C9.51467 55.3698 6.45119 55.3499 3.38881 55.3388C2.80053 55.3449 2.21272 55.303 1.63127 55.2135C0.944455 55.1026 0.410758 54.7244 0.225462 54.0025C0.124493 53.6 0.013537 53.1852 0.0124274 52.776C-0.000887265 47.5819 -0.000887265 42.3877 0.0124274 37.1935C0.0124274 36.466 0.0790009 35.7009 0.730311 35.2119C1.02101 34.9901 1.39605 34.7927 1.74888 34.7683C2.96274 34.6818 4.18214 34.6574 5.40044 34.643C7.01484 34.6241 8.62925 34.6507 10.2448 34.633C11.1324 34.623 12.0134 34.5886 12.8944 34.5221C13.5923 34.4667 14.1282 34.0386 14.6608 33.6272C15.3099 33.126 15.9545 32.6203 16.6092 32.1268C17.3315 31.5824 17.4857 30.8083 17.4868 29.9789C17.4913 26.3061 17.4913 22.6334 17.4868 18.9606C17.4868 17.9304 18.248 17.1697 19.2932 17.1686C22.8937 17.1686 26.4942 17.1686 30.0947 17.1686C51.3982 17.1331 74.2374 17.0422 95.5586 17.0078C95.6158 17.0077 95.6725 17.0188 95.7254 17.0406C95.7783 17.0624 95.8264 17.0944 95.8669 17.1347C95.9074 17.1751 95.9395 17.2231 95.9614 17.2759C95.9834 17.3287 95.9947 17.3853 95.9947 17.4425V18.5315C95.9944 18.6467 95.9485 18.7571 95.8669 18.8385C95.7854 18.92 95.675 18.9659 95.5597 18.9662H83.642C83.1938 18.9626 82.7496 19.0491 82.3356 19.2206C81.9216 19.392 81.5463 19.6449 81.232 19.9642C77.6537 23.5427 74.0809 27.1323 70.4782 30.6919C69.4075 31.7509 68.2591 32.7323 67.1207 33.7204C66.3606 34.3802 65.4175 34.6286 64.4366 34.6297C53.0023 34.6408 41.5687 34.6448 30.1358 34.6419C26.765 34.6419 23.3941 34.6929 20.0233 34.7594C19.0913 34.7783 18.137 34.898 17.6411 35.8827C17.5068 36.1489 17.4547 36.4583 17.3814 36.751C17.3686 36.8616 17.3686 36.9732 17.3814 37.0837C17.3444 41.0647 17.3075 45.0458 17.2705 49.0268C17.2583 50.1357 16.2053 51.1071 15.0181 51.1082C11.3244 51.1082 7.63065 51.1082 3.93693 51.1149C3.60923 51.118 3.28275 51.1552 2.96274 51.2258C2.34915 51.3577 1.99521 51.7392 2.01407 52.1994C2.03492 52.492 2.16059 52.7673 2.36804 52.9749C2.57549 53.1824 2.85083 53.3083 3.1436 53.3294C3.30892 53.3449 3.47646 53.3294 3.64512 53.3294L87.5698 53.3117C88.7992 53.2961 89.9132 54.4306 89.8999 55.616C89.8566 59.8454 89.8832 64.0748 89.8832 68.3043C89.8832 69.5917 88.9956 70.47 87.7074 70.47L18.218 70.4766Z" fill="black"/>
</g>
<defs>
<clipPath id="clip0_825_2">
<rect width="96" height="90" fill="white" transform="translate(0 17)"/>
</clipPath>
</defs>
</svg>
